HIERARCHY
ROOT Hips
{
 OFFSET 0.000000 0.000000 0.000000
 CHANNELS 6 Xposition Yposition Zposition Yrotation Xrotation Zrotation
 JOINT Chest
 {
  OFFSET 0.000000 9.585900 0.002600
  CHANNELS 3 Yrotation Xrotation Zrotation
  JOINT Chest2
  {
   OFFSET 0.000000 9.601200 -0.005300
   CHANNELS 3 Yrotation Xrotation Zrotation
   JOINT Chest3
   {
    OFFSET 0.000000 9.561800 0.000000
    CHANNELS 3 Yrotation Xrotation Zrotation
    JOINT Chest4
    {
     OFFSET 0.000000 9.552100 0.000000
     CHANNELS 3 Yrotation Xrotation Zrotation
     JOINT Neck
     {
      OFFSET 0.000000 14.453000 0.000000
      CHANNELS 3 Yrotation Xrotation Zrotation
      JOINT Head
      {
       OFFSET 0.000000 8.936500 -0.011300
       CHANNELS 3 Yrotation Xrotation Zrotation
       End Site
       {
        OFFSET 0.000000 17.073600 -0.006000
       }
      }
     }
     JOINT RightCollar
     {
      OFFSET -2.921100 9.558500 0.000000
      CHANNELS 3 Yrotation Xrotation Zrotation
      JOINT RightShoulder
      {
       OFFSET -13.519700 0.000000 0.000000
       CHANNELS 3 Yrotation Xrotation Zrotation
       JOINT RightElbow
       {
        OFFSET 0.000000 -29.696600 0.000000
        CHANNELS 3 Yrotation Xrotation Zrotation
        JOINT RightWrist
        {
         OFFSET 0.000000 -24.004700 0.000000
         CHANNELS 3 Yrotation Xrotation Zrotation
         End Site
         {
          OFFSET 0.000000 -17.728500 0.000000
         }
        }
       }
      }
     }
     JOINT LeftCollar
     {
      OFFSET 2.921100 9.558500 0.000000
      CHANNELS 3 Yrotation Xrotation Zrotation
      JOINT LeftShoulder
      {
       OFFSET 13.519700 0.000000 0.000000
       CHANNELS 3 Yrotation Xrotation Zrotation
       JOINT LeftElbow
       {
        OFFSET 0.000000 -29.696600 0.000000
        CHANNELS 3 Yrotation Xrotation Zrotation
        JOINT LeftWrist
        {
         OFFSET 0.000000 -24.004700 0.000000
         CHANNELS 3 Yrotation Xrotation Zrotation
         End Site
         {
          OFFSET 0.000000 -17.728500 0.000000
         }
        }
       }
      }
     }
    }
   }
  }
 }
 JOINT RightHip
 {
  OFFSET -7.771700 -0.012900 -0.001300
  CHANNELS 3 Yrotation Xrotation Zrotation
  JOINT RightKnee
  {
   OFFSET 0.000000 -40.869800 0.001200
   CHANNELS 3 Yrotation Xrotation Zrotation
   JOINT RightAnkle
   {
    OFFSET 0.000000 -39.717900 0.002100
    CHANNELS 3 Yrotation Xrotation Zrotation
    JOINT RightToe
    {
     OFFSET 0.000000 -4.965400 11.033500
     CHANNELS 3 Yrotation Xrotation Zrotation
     End Site
     {
      OFFSET 0.000000 -1.423100 5.872300
     }
    }
   }
  }
 }
 JOINT LeftHip
 {
  OFFSET 7.771700 -0.012900 -0.001300
  CHANNELS 3 Yrotation Xrotation Zrotation
  JOINT LeftKnee
  {
   OFFSET 0.000000 -40.869800 0.001200
   CHANNELS 3 Yrotation Xrotation Zrotation
   JOINT LeftAnkle
   {
    OFFSET 0.000000 -39.717900 0.002100
    CHANNELS 3 Yrotation Xrotation Zrotation
    JOINT LeftToe
    {
     OFFSET 0.000000 -4.965400 11.033500
     CHANNELS 3 Yrotation Xrotation Zrotation
     End Site
     {
      OFFSET 0.000000 -1.423100 5.872300
     }
    }
   }
  }
 }
}
MOTION
Frames: 15
Frame Time: 0.008333
0.000000 85.388000 0.000000 0.000000 -5.767877 0.000000 0.000000 11.653817 0.000000 0.000000 -5.885947 0.000000 0.000000 -0.000000 0.000000 0.000000 -0.000000 0.000000 0.000000 12.528835 0.000000 0.000000 0.711642 0.000000 0.000000 -0.000000 0.000000 0.000000 0.000000 -90.000000 0.000000 -2.309062 0.000000 0.000000 2.309062 0.000000 0.000000 -0.000000 0.000000 0.000000 -0.000000 90.000000 0.000000 -2.309062 0.000000 0.000000 2.309062 0.000000 0.000000 8.520406 0.000000 0.000000 1.905762 0.000000 -0.000000 -4.658285 0.000000 0.000000 -0.000000 0.000000 0.000000 8.520406 0.000000 0.000000 1.905762 0.000000 -0.000000 -4.658285 0.000000 0.000000 -0.000000 0.000000
-18.943682 55.582696 38.483589 -179.067410 -30.415220 -11.344897 -0.387355 12.358238 6.110547 -0.154096 7.112957 2.154844 -0.207370 8.932621 2.660250 -0.206902 7.155108 2.121766 5.328425 21.055847 0.597867 5.613581 -3.167697 -0.577172 2.043282 1.967652 -2.474591 -14.955387 -12.420601 3.141799 19.296904 -72.019986 1.263597 7.904248 -10.133789 -19.061914 -8.371455 3.918160 -3.395015 5.385319 -1.736240 -0.562498 -66.646783 -75.415892 70.791943 11.239220 -15.263002 -0.187297 -18.511007 -35.167605 6.764367 30.066444 84.500762 24.721302 -0.760060 -17.204299 3.582831 -0.901263 1.741422 -0.427897 -18.263957 -46.971969 18.306467 168.064657 79.299747 162.748812 -1.473250 -15.568293 0.442776 -1.132642 -2.750273 -0.493829
-18.930430 55.584833 38.486833 -179.137702 -30.407468 -11.364423 -0.370574 12.382286 6.121980 -0.173995 7.141891 2.130632 -0.175577 8.920957 2.668771 -0.233294 7.189507 2.094952 5.318771 21.096912 0.527420 5.620157 -3.119666 -0.650850 2.001119 1.974318 -2.493781 -15.057587 -11.999813 3.357108 22.115482 -72.230322 -1.720803 8.161246 -10.155996 -19.098178 -8.345494 3.907396 -3.393669 5.387179 -1.708008 -0.597447 -67.104305 -75.373293 71.329584 11.360631 -15.670205 -0.174272 -18.500922 -35.165957 6.829030 30.045575 84.479547 24.727925 -0.763883 -17.188950 3.559409 -0.888343 1.743462 -0.431313 -18.274760 -46.986299 18.393842 167.851072 79.265331 162.555675 -1.474591 -15.537752 0.424341 -1.155283 -2.787932 -0.504482
-18.917947 55.587636 38.488441 -179.204357 -30.406209 -11.379911 -0.360285 12.415010 6.124683 -0.192144 7.172071 2.105407 -0.122659 8.890613 2.691539 -0.276979 7.243620 2.058215 5.303245 21.135316 0.458587 5.619822 -3.074961 -0.721518 1.961820 1.973818 -2.503089 -15.126358 -11.603594 3.562371 25.149683 -72.374359 -4.929316 8.390896 -10.148501 -19.190248 -8.333277 3.883069 -3.392257 5.411298 -1.667262 -0.635234 -67.507631 -75.381794 71.790130 11.540542 -16.159262 -0.276017 -18.506432 -35.156053 6.893802 30.045837 84.461886 24.725539 -0.720394 -17.179431 3.538163 -0.891069 1.746359 -0.430903 -18.273840 -46.995203 18.467228 167.631546 79.230997 162.360550 -1.488618 -15.507949 0.409138 -1.176542 -2.826777 -0.514135
-18.905225 55.590655 38.489078 -179.270807 -30.406105 -11.397324 -0.351748 12.451513 6.128601 -0.158776 7.159498 2.116977 -0.217707 8.996769 2.611877 -0.212496 7.208078 2.082041 5.279579 21.169769 0.389343 5.610594 -3.035381 -0.790797 1.925958 1.971583 -2.506049 -15.185072 -11.235722 3.752214 28.072494 -72.452509 -8.018219 8.568872 -10.139913 -19.313379 -8.330773 3.844385 -3.392284 5.452445 -1.616132 -0.671753 -67.859617 -75.431509 72.174708 11.791932 -16.748084 -0.484075 -18.548193 -35.132877 6.975752 30.025022 84.435686 24.682247 -0.695700 -17.191200 3.520718 -0.924524 1.770217 -0.432868 -18.266918 -47.000041 18.537362 167.468539 79.202565 162.222588 -1.481615 -15.489392 0.389119 -1.195017 -2.853793 -0.521995
-18.893133 55.593583 38.488390 -179.348286 -30.409069 -11.406751 -0.334195 12.491835 6.130475 -0.174730 7.191229 2.094026 -0.216308 9.023736 2.594526 -0.191138 7.206563 2.082290 5.247697 21.197237 0.318245 5.592701 -3.004351 -0.860124 1.891569 1.971935 -2.506675 -15.251737 -10.897796 3.925632 30.633758 -72.490795 -10.722595 8.688357 -10.151702 -19.441161 -8.287795 3.779356 -3.365912 5.457256 -1.541915 -0.724020 -68.159554 -75.506682 72.484768 12.102557 -17.448766 -0.761538 -18.553217 -35.120503 7.046032 29.937266 84.424714 24.591474 -0.678643 -17.180253 3.503625 -0.949262 1.769127 -0.432330 -18.241435 -47.004310 18.598617 167.315906 79.172743 162.100014 -1.479785 -15.474911 0.369017 -1.199061 -2.878751 -0.530497
-18.873612 55.601294 38.480692 -179.482865 -30.466744 -11.434647 -0.248782 12.576707 6.180821 -0.155395 7.193533 2.094662 -0.235263 9.056640 2.575323 -0.149444 7.179593 2.094139 5.161761 21.258805 0.230870 5.567260 -2.983552 -0.931323 1.816037 2.023558 -2.523168 -15.338899 -10.593022 4.083143 32.741164 -72.517903 -12.940119 8.762796 -10.200900 -19.561957 -8.287120 3.752387 -3.365870 5.457972 -1.476582 -0.763802 -68.408437 -75.595767 72.727571 12.451025 -18.264237 -1.052684 -18.523811 -35.051640 7.160405 29.786312 84.418983 24.443393 -0.668691 -17.150504 3.504557 -0.946109 1.748707 -0.455771 -18.196093 -46.948757 18.707903 167.146044 79.125487 161.962232 -1.451424 -15.436758 0.350159 -1.253835 -2.948717 -0.550474
-18.862056 55.603343 38.477269 -179.566995 -30.468887 -11.440645 -0.230375 12.613603 6.182989 -0.117519 7.182804 2.106631 -0.274251 9.096806 2.552138 -0.168418 7.216711 2.075834 5.138146 21.246932 0.158835 5.534543 -2.971661 -1.006223 1.807197 2.021054 -2.518689 -15.448711 -10.317485 4.218805 34.416135 -72.550357 -14.692997 8.818086 -10.296028 -19.676369 -8.244281 3.679518 -3.362718 5.472494 -1.434924 -0.770115 -68.627535 -75.681700 72.935981 12.828561 -19.195258 -1.301184 -18.529788 -35.042169 7.230917 29.707551 84.412435 24.362291 -0.647547 -17.138644 3.475159 -0.931627 1.745041 -0.448580 -18.168618 -46.947150 18.773186 167.133110 79.104163 161.971258 -1.433691 -15.445993 0.334778 -1.263148 -2.958648 -0.557201
-18.852268 55.603646 38.473531 -179.647593 -30.459082 -11.438631 -0.220422 12.637244 6.176633 -0.117427 7.197050 2.097392 -0.271840 9.107641 2.551880 -0.188704 7.247431 2.061968 5.106295 21.232288 0.079070 5.493613 -2.968071 -1.085700 1.800782 2.023801 -2.518075 -15.579883 -10.062533 4.324961 35.734686 -72.595981 -16.056762 8.875754 -10.430181 -19.785761 -8.194883 3.607760 -3.366527 5.500860 -1.419792 -0.755529 -68.734325 -75.720772 73.038289 13.266721 -20.249631 -1.503825 -18.517332 -35.052011 7.281872 29.649327 84.411300 24.314368 -0.611628 -17.126354 3.442672 -0.931755 1.737326 -0.440163 -18.114285 -46.965439 18.806127 167.119261 79.085677 161.996962 -1.403623 -15.459235 0.320391 -1.277464 -2.963462 -0.565225
-18.844806 55.601252 38.470717 -179.713767 -30.425957 -11.430257 -0.230071 12.638713 6.158567 -0.117677 7.211121 2.090771 -0.232065 9.087440 2.565605 -0.226889 7.279951 2.051815 5.043656 21.231060 -0.010432 5.445673 -2.971668 -1.167863 1.768579 2.040879 -2.524425 -15.735538 -9.826503 4.406858 36.815473 -72.647274 -17.140967 8.943468 -10.584243 -19.890247 -8.192714 3.564008 -3.404366 5.546457 -1.412576 -0.722506 -68.903692 -75.770824 73.137831 13.641511 -21.409426 -1.532330 -18.519130 -35.085845 7.329527 29.586404 84.415054 24.265677 -0.626027 -17.122925 3.431751 -0.888692 1.737889 -0.447992 -18.089312 -47.004193 18.848026 167.132802 79.072300 162.030650 -1.385805 -15.473818 0.314750 -1.285406 -2.961667 -0.570745
-18.833261 55.600634 38.463780 -179.785693 -30.413660 -11.444358 -0.223974 12.659030 6.168282 -0.170276 7.251421 2.064629 -0.138631 9.040970 2.592626 -0.265781 7.307422 2.041830 4.977173 21.225754 -0.100753 5.393719 -2.980076 -1.249978 1.731605 2.052058 -2.526802 -15.917504 -9.612812 4.473738 37.802170 -72.690188 -18.083749 9.019037 -10.739990 -19.993954 -8.143403 3.517906 -3.409866 5.437184 -1.370756 -0.742486 -69.154705 -75.769698 73.410906 13.990054 -22.649343 -1.433165 -18.570850 -35.076414 7.415031 29.623800 84.400906 24.283026 -0.606124 -17.139786 3.402031 -0.909476 1.756740 -0.448110 -18.078395 -47.013708 18.916995 167.157531 79.050084 162.078043 -1.364206 -15.500587 0.309147 -1.298149 -2.960188 -0.583838
-18.819257 55.602238 38.451527 -179.879380 -30.433592 -11.462964 -0.185150 12.706521 6.196170 -0.189442 7.267720 2.054373 -0.177140 9.073864 2.575621 -0.209024 7.278416 2.051132 4.907419 21.218800 -0.191201 5.338237 -2.990562 -1.331466 1.686234 2.053483 -2.525442 -16.108468 -9.419083 4.527105 38.807991 -72.712562 -19.012703 9.095088 -10.891697 -20.107151 -8.093742 3.472131 -3.415424 5.349095 -1.351995 -0.747589 -69.399189 -75.735582 73.663181 14.305759 -23.928321 -1.219257 -18.577898 -35.042235 7.497762 29.660065 84.393819 24.317064 -0.580233 -17.134072 3.367022 -0.924624 1.750778 -0.443287 -18.043595 -46.990745 18.981363 167.236186 79.018568 162.194274 -1.324539 -15.533348 0.282321 -1.309002 -2.967741 -0.589199
-18.811085 55.600168 38.441006 -179.925288 -30.419537 -11.470824 -0.194759 12.727059 6.190356 -0.191953 7.272093 2.053667 -0.199198 9.090819 2.568386 -0.191925 7.272060 2.053643 4.833980 21.213118 -0.281847 5.278734 -2.999742 -1.412272 1.629524 2.044774 -2.525396 -16.286474 -9.241668 4.568642 39.872133 -72.701716 -19.992437 9.167806 -11.040124 -20.236787 -8.042050 3.427719 -3.420613 5.269213 -1.333521 -0.747490 -69.768447 -75.655113 74.025368 14.569459 -25.201696 -0.861069 -18.604894 -35.044817 7.538829 29.765693 84.391805 24.426615 -0.554049 -17.144052 3.331044 -0.922949 1.754560 -0.430895 -18.025871 -47.011550 19.004590 167.242149 78.991371 162.231258 -1.287565 -15.548667 0.277708 -1.333374 -2.979584 -0.598249
-18.804033 55.596519 38.430861 -179.963450 -30.393292 -11.476671 -0.209628 12.735041 6.178225 -0.195274 7.275092 2.054029 -0.187561 9.086046 2.574888 -0.176292 7.264835 2.055699 4.722680 21.227252 -0.369359 5.216239 -3.005513 -1.489695 1.530256 2.049324 -2.529766 -16.440128 -9.081647 4.606571 40.986830 -72.652181 -21.032980 9.237534 -11.172150 -20.381977 -8.013837 3.406675 -3.422396 5.167602 -1.304744 -0.755671 -70.308763 -75.509485 74.574069 14.782613 -26.417224 -0.392875 -18.639465 -35.060154 7.580358 29.871669 84.392745 24.542390 -0.569599 -17.156626 3.308152 -0.902590 1.760875 -0.429766 -18.015954 -47.045097 19.025552 167.233037 78.964858 162.248595 -1.256707 -15.565760 0.294267 -1.352168 -2.986511 -0.626051
-18.796956 55.590126 38.423931 179.993991 -30.339684 -11.481446 -0.222727 12.714082 6.166397 -0.199930 7.276195 2.054183 -0.144206 9.063152 2.593111 -0.249973 7.298027 2.043781 4.664368 21.217020 -0.453186 5.152071 -3.009229 -1.560783 1.482179 2.030352 -2.538639 -16.563554 -8.940732 4.647719 42.115910 -72.565307 -22.104376 9.302056 -11.271236 -20.541969 -7.963106 3.359710 -3.433497 5.094781 -1.258950 -0.756913 -71.003527 -75.306656 75.297437 14.951051 -27.524910 0.108380 -18.679857 -35.101022 7.639938 29.976561 84.390630 24.642986 -0.561750 -17.180029 3.287605 -0.904286 1.778583 -0.430192 -18.019500 -47.110191 19.061415 167.195705 78.935989 162.238208 -1.223078 -15.574961 0.301463 -1.379526 -2.995462 -0.646349
